<?xml version="1.0" standalone="no"?><!DOCTYPE svg PUBLIC "-//W3C//DTD SVG 1.1//EN" "http://www.w3.org/Graphics/SVG/1.1/DTD/svg11.dtd"><svg t="1604911147509" class="icon" viewBox="0 0 1541 1024" version="1.1" xmlns="http://www.w3.org/2000/svg" p-id="9334" xmlns:xlink="http://www.w3.org/1999/xlink" width="192.625" height="128"><defs><style type="text/css"></style></defs><path d="M6.29 1017.71h1520.904V6.29H6.29v1011.42z m1524.678 3.774v-3.774 3.774zM0 1024V0h1533.484v1024H0z" fill="#353636" p-id="9335"></path><path d="M3.774 2.516h1527.194V512H3.774z" fill="#0053A3" p-id="9336"></path><path d="M3.774 512h1527.194v509.484H3.774z" fill="#CC303C" p-id="9337"></path><path d="M3.774 1021.484V2.516L740.954 512z" fill="#FFFFFF" p-id="9338"></path><path d="M106.929 924.62l-36.482-16.355-25.16 30.192 3.774-38.998-36.481-15.095 38.997-8.806 2.516-38.998 20.128 33.966 38.998-10.064L86.8 890.654zM405.07 534.643l16.354-17.612-22.644-17.612c-16.353 2.516-33.965 3.774-50.32 6.29-16.353 2.516-15.095-5.032 0-7.548 15.097-2.516 28.935-5.032 44.03-7.548-10.063-8.806-11.321-11.322-23.901-7.548-13.838 3.774-32.708 16.354-37.74 1.258-3.774-10.064-11.322-13.838-1.258-18.87 7.548-3.773 15.096-8.805 22.644-12.58 13.838-7.547 13.838-7.547 16.354-23.901l-33.966 22.644-15.096 10.064c-7.548 5.032 0-8.806 1.258-10.064 13.838-11.322 27.676-21.386 41.514-32.708 10.064-7.548 6.29-17.612 6.29-28.934l-27.676 1.258c-10.064 12.58-21.386 26.418-31.45 38.998-10.064 13.838-15.095 7.548-5.032-6.29 8.806-12.58 17.612-23.902 26.418-36.482-12.58 1.258-15.096 0-21.386 11.322-5.032 7.548-8.806 15.096-13.837 22.644-6.29 10.064-2.516 10.064-13.838 3.774-10.064-5.032-20.128-1.258-17.612-13.838 2.516-8.806 5.032-16.354 6.29-25.16 3.774-15.095 3.774-15.095-6.29-28.933-2.516 13.838-5.032 26.418-7.548 40.255l-3.774 18.87c-1.258 8.806-6.29-6.29-6.29-8.806 2.516-17.612 3.774-35.223 6.29-52.835 1.258-12.58-7.548-16.354-16.354-25.16l-17.612 23.902c2.516 16.354 3.774 33.965 6.29 50.32 2.516 16.353-5.032 15.095-7.548 0-2.516-15.097-5.031-28.934-7.547-44.03-7.548 10.064-11.322 11.322-7.548 23.902 2.516 8.805 5.032 16.353 6.29 25.16 2.516 11.321 5.031 8.805-6.29 13.837-10.064 3.774-15.096 12.58-21.386 2.516-3.774-7.548-8.806-15.096-12.58-22.644-7.548-13.838-8.806-13.838-23.902-15.096 7.548 11.322 15.096 21.386 23.902 32.708l10.064 15.096c5.032 7.548-8.806 0-10.064-1.258l-33.966-41.514c-7.547-10.063-17.611-6.29-28.933-5.032l3.774 28.934c13.838 10.064 26.417 20.128 40.255 30.192 13.838 10.064 7.548 15.096-5.032 5.032-12.58-8.806-23.901-16.354-36.481-25.16 1.258 12.58 0 15.096 11.322 21.386 12.58 7.548 35.223 11.322 27.675 26.417-5.032 10.064-1.258 18.87-12.58 16.354-8.805-2.516-16.353-5.032-25.16-6.29-18.87-5.032-18.87-5.032-31.449 5.032 13.838 2.516 26.418 5.032 40.256 7.548l17.611 2.516c10.064 1.258-6.29 6.29-8.805 6.29-17.612-1.258-35.224-3.774-52.836-5.032-12.58-1.258-16.354 7.548-25.16 16.354l22.644 17.612c16.354-2.516 33.966-3.774 50.32-6.29 16.353-2.516 15.095 5.032 0 7.548-15.096 2.516-28.934 5.032-44.03 7.548 10.064 7.548 11.322 11.321 23.902 7.548 13.838-3.774 32.707-16.354 37.74-1.258 3.773 10.063 11.321 13.837 2.515 20.127-7.548 3.774-15.095 8.806-22.643 12.58-13.838 7.548-13.838 7.548-16.354 23.902l33.965-22.644 15.096-10.064c7.548-5.032 0 8.806-1.258 10.064-13.838 11.322-27.675 22.644-41.513 32.708-10.064 7.548-6.29 17.612-5.032 28.933l28.933-3.774c10.064-13.837 21.386-26.417 31.45-40.255s15.096-7.548 5.032 6.29c-8.806 12.58-17.612 23.902-25.16 36.481 12.58-1.258 15.096 0 21.386-11.321 5.032-7.548 8.806-15.096 12.58-22.644 6.29-10.064 2.516-10.064 13.838-5.032 10.064 5.032 20.128 1.258 16.354 12.58-2.516 8.806-5.032 16.354-6.29 25.16-3.774 15.095-3.774 16.353 6.29 28.933 2.516-13.838 5.031-26.418 7.547-40.255l2.516-17.612c1.258-10.064 6.29 6.29 6.29 8.806-1.258 17.611-3.774 35.223-5.032 52.835-1.258 12.58 7.548 16.354 17.612 23.902l17.612-22.644c-2.516-16.354-5.032-33.966-6.29-50.32-2.516-16.353 5.032-15.095 7.548 0 2.516 15.096 5.032 28.934 8.806 44.03 7.548-10.064 10.064-11.322 7.548-23.902-2.516-8.805-5.032-16.353-7.548-25.16-2.516-11.321-5.032-8.805 6.29-13.837 10.064-3.774 15.096-12.58 20.128-2.516 5.032 7.548 8.805 15.096 13.837 22.644 8.806 13.837 8.806 13.837 25.16 15.095-7.548-11.321-15.096-21.385-23.902-32.707l-10.063-15.096c-5.032-7.548 8.805 0 10.063 1.258l33.966 41.514c7.548 10.063 17.612 5.031 28.934 5.031l-5.032-25.16c-13.838-10.063-26.418-20.127-40.256-30.19-13.838-10.065-7.548-13.839 5.032-5.033 12.58 8.806 25.16 16.354 36.482 25.16-1.258-12.58 0-15.096-11.322-21.386-12.58-7.548-35.224-11.322-27.676-26.418 5.032-8.805 1.258-18.87 12.58-15.095 8.806 2.516 16.354 5.032 25.16 6.29 15.096 3.773 15.096 3.773 28.933-6.29-11.321-2.516-22.643-3.774-33.965-6.29l-18.87-3.774c-2.516 0-12.58-8.806-3.774-7.548l67.931 7.548z m167.312 8.806L595.027 512l-22.644-31.45 36.482 12.58 22.644-32.707v38.997l37.74 12.58-36.482 11.322v40.255l-23.902-32.707zM106.93 99.38l-36.482 16.355-25.16-30.192 3.774 38.998-36.481 16.353 38.997 7.548 2.516 38.998 20.128-33.966 38.998 8.806L86.8 133.346z" fill="#FAD400" p-id="9339"></path></svg>