<?xml version="1.0" standalone="no"?><!DOCTYPE svg PUBLIC "-//W3C//DTD SVG 1.1//EN" "http://www.w3.org/Graphics/SVG/1.1/DTD/svg11.dtd"><svg t="1604911126167" class="icon" viewBox="0 0 1541 1024" version="1.1" xmlns="http://www.w3.org/2000/svg" p-id="7340" xmlns:xlink="http://www.w3.org/1999/xlink" width="192.625" height="128"><defs><style type="text/css"></style></defs><path d="M6.296 1017.71H1527.2V6.29H6.296v1011.42z m1523.42 2.516v-3.774 3.774zM0.006 1024V0H1533.49v1024H0.006z" fill="#353636" p-id="7341"></path><path d="M2.522 2.516h381.17v1017.71H2.522z" fill="#D9374B" p-id="7342"></path><path d="M384.95 2.516h763.597v1017.71H384.95z" fill="#FFFFFF" p-id="7343"></path><path d="M1147.289 2.516h381.17v1017.71h-381.17zM766.119 855.43h12.58l-3.774-161.022 11.322-10.064c50.32 6.29 95.607 11.322 145.926 17.612l-12.58-44.03c-2.516-7.548 1.258-16.354 6.29-21.385L1071.81 512l-30.192-15.096c-13.838-5.032-10.064-12.58-5.032-31.45l22.644-84.284-84.285 18.87c-8.806 1.257-13.838-3.775-15.096-8.807l-11.322-40.255-66.673 77.995c-10.064 12.58-28.934 12.58-22.644-16.354l28.934-159.764-38.998 21.386c-11.322 6.29-21.385 7.548-27.675-3.774l-55.352-103.155-54.093 103.155c-6.29 11.322-16.354 10.064-27.676 3.774l-38.997-21.386 28.933 159.764c6.29 28.934-13.838 28.934-22.643 16.354l-66.674-77.995-11.322 40.255c-1.257 5.032-6.29 11.322-15.095 10.064l-85.543-18.87 22.643 84.286c5.032 18.87 8.806 26.417-5.032 31.45l-30.191 15.095 145.926 124.54c6.29 5.032 8.806 12.58 6.29 21.386l-12.58 44.03c50.32-6.29 95.607-11.322 145.926-17.612l11.322 10.064-3.774 161.022h12.58z" fill="#D9374B" p-id="7344"></path></svg>