<?xml version="1.0" standalone="no"?><!DOCTYPE svg PUBLIC "-//W3C//DTD SVG 1.1//EN" "http://www.w3.org/Graphics/SVG/1.1/DTD/svg11.dtd"><svg t="1604911137996" class="icon" viewBox="0 0 1024 1024" version="1.1" xmlns="http://www.w3.org/2000/svg" p-id="8463" xmlns:xlink="http://www.w3.org/1999/xlink" width="128" height="128"><defs><style type="text/css"></style></defs><path d="M65.2 202.9H960v617.7H65.2z" fill="#00237A" p-id="8464"></path><path d="M960 419.8H599V202.9H423.5v216.9H65.2v184.1h358.3v216.7H599V603.9h361V419.8z m0 0" fill="#FFFFFF" p-id="8465"></path><path d="M960 750.2L165.6 202.9H65.2v71.2l793.7 546.5H960v-70.4z m0 0" fill="#FFFFFF" p-id="8466"></path><path d="M65.2 750.2L859.6 203H960v71.2L166.3 820.6H65.2v-70.4z m0 0" fill="#FFFFFF" p-id="8467"></path><path d="M960 458.5H562.1V202.9H460.3v255.5H65.2v106.8h395.1v255.4h101.8V565.3H960V458.5z m0 0" fill="#CF142B" p-id="8468"></path><path d="M960 820.6v-48.5L713.8 603.9h-69.3L960 820.6z m0-617.7h-69.3L599 401.6v18.2h43.3L960 202.9z m-582 401L65.2 819.1v1.5h66.4l291.8-200v-16.7H378z m-312.8-401v48.5l244.9 168.4h70L65.2 202.9z m0 0" fill="#CF142B" p-id="8469"></path></svg>